<svg width="122" height="24" viewBox="0 0 122 24" fill="none" xmlns="http://www.w3.org/2000/svg">
<g id="TheFork Logo" clip-path="url(#clip0_206_7479)">
<g id="Shape">
<path d="M95.9813 12.1121C95.9878 6.07502 100.424 0 109.157 0C117.662 0 122.09 6.14282 121.99 11.9602C121.874 18.7039 117.379 22.1924 113.352 23.4466L112.893 21.4358C112.653 20.3817 112.938 19.4413 113.684 18.7767C114.648 17.9172 115.222 16.8544 115.52 15.3849C115.836 13.8313 115.688 12.1262 114.987 10.4231L112.605 3.7252H110.216L112.125 11.3764C112.3 12.1386 111.721 12.8654 110.939 12.8654L108.62 2.69208H106.448L108.538 15.2469C107.229 15.3643 106.745 14.5158 106.636 13.9018L105.304 4.41981H103.098C103.098 4.41981 103.112 9.52812 103.112 13.0167C103.112 18.1443 105.852 19.6706 107.745 20.126C108.816 20.3835 109.531 21.216 109.725 22.385L109.994 23.9999C105.94 24.0104 95.9702 22.5016 95.9813 12.1121Z" fill="#00665A"/>
<path d="M0 6.122H5.63625V20.0398H8.83229V6.122H14.4901V3.72497H0V6.122Z" fill="#00665A"/>
<path d="M19.0414 3.73325H15.9318V20.0399H19.0414V14.0797C19.0414 11.1428 21.0498 9.35043 22.8637 9.35043C24.0946 9.35043 25.0016 10.1494 25.0016 11.7691V20.0399H28.1113V10.7757C28.1113 8.14112 26.3621 6.86703 24.289 6.86703C22.1511 6.86703 19.9052 8.29228 19.0414 10.9269V3.73325Z" fill="#00665A"/>
<path fill-rule="evenodd" clip-rule="evenodd" d="M29.6287 13.475C29.6287 10.171 31.745 6.86697 36.0208 6.86697C39.476 6.86697 41.3115 8.96168 41.3115 12.8919V13.4966H32.2417C32.5873 15.5481 34.1637 17.1677 36.8198 17.1677C38.4178 17.1677 40.1238 16.5846 41.5275 15.4617V18.5066C39.9295 19.6943 38.1155 20.2774 36.3231 20.2774C32.1338 20.2774 29.6287 17.1893 29.6287 13.475ZM38.1587 11.9849C38.1587 9.80387 37.2733 8.72412 35.6105 8.72412C33.6238 8.72412 32.4577 10.2358 32.2201 11.9849H38.1587Z" fill="#00665A"/>
<path d="M54.7093 3.72497H43.1129L43.1129 20.0398H46.3306V12.5572H53.6295V10.1602H46.3306V6.122H54.7093V3.72497Z" fill="#00665A"/>
<path fill-rule="evenodd" clip-rule="evenodd" d="M55.0002 13.6045C55.0002 10.2573 57.3973 6.86697 62.0185 6.86697C66.5534 6.86697 68.9073 10.1926 68.9073 13.5398C68.9073 16.9086 66.5103 20.2774 61.8889 20.2774C57.3757 20.2774 55.0002 16.9302 55.0002 13.6045ZM62.1049 17.8803C64.4803 17.8803 65.7328 15.98 65.7328 13.7341C65.7328 11.3803 64.3724 9.264 61.8026 9.264C59.4271 9.264 58.1746 11.1643 58.1746 13.3886C58.1746 15.764 59.5351 17.8803 62.1049 17.8803Z" fill="#00665A"/>
<path d="M73.297 7.08301H70.4248L70.4248 20.0399H73.5345V12.2226C74.1824 10.6246 75.7156 9.76078 77.292 9.76078C78.1342 9.76078 79.0196 9.99831 79.689 10.4734V7.42851C79.1708 7.10462 78.5013 6.91024 77.8318 6.91024C75.8884 6.91024 73.988 8.14116 73.297 11.0781V7.08301Z" fill="#00665A"/>
<path d="M87.1205 12.314L93.2862 5.74859H89.7603L84.3841 11.2931L84.3825 3.72497H81.2744V20.0398H84.405L84.3825 13.3862C84.3825 13.3862 89.5357 13.2597 89.5357 20.0398H92.9059C92.9059 13.475 87.1205 12.314 87.1205 12.314Z" fill="#00665A"/>
</g>
</g>
<defs>
<clipPath id="clip0_206_7479">
<rect width="122" height="24" fill="white"/>
</clipPath>
</defs>
</svg>
